<svg width="200" height="200" viewBox="0 0 28 27" xmlns="http://www.w3.org/2000/svg">
<path d="M14 0C12.1615 0 10.341 0.357857 8.64243 1.05314C6.94387 1.74842 5.40053 2.76751 4.1005 4.05223C1.475 6.64682 0 10.1659 0 13.8352C0 19.9503 4.018 25.1385 9.576 26.9786C10.276 27.0893 10.5 26.6604 10.5 26.2868V23.9487C6.622 24.7788 5.796 22.0948 5.796 22.0948C5.152 20.4899 4.242 20.061 4.242 20.061C2.968 19.2032 4.34 19.2309 4.34 19.2309C5.74 19.3277 6.482 20.6559 6.482 20.6559C7.7 22.7588 9.758 22.1363 10.556 21.8042C10.682 20.9049 11.046 20.2962 11.438 19.9503C8.33 19.6044 5.068 18.4146 5.068 13.1434C5.068 11.6077 5.6 10.3764 6.51 9.39408C6.37 9.0482 5.88 7.60934 6.65 5.74159C6.65 5.74159 7.826 5.36804 10.5 7.15278C11.606 6.84841 12.81 6.69622 14 6.69622C15.19 6.69622 16.394 6.84841 17.5 7.15278C20.174 5.36804 21.35 5.74159 21.35 5.74159C22.12 7.60934 21.63 9.0482 21.49 9.39408C22.4 10.3764 22.932 11.6077 22.932 13.1434C22.932 18.4284 19.656 19.5906 16.534 19.9365C17.038 20.3654 17.5 21.2093 17.5 22.496V26.2868C17.5 26.6604 17.724 27.1031 18.438 26.9786C23.996 25.1247 28 19.9503 28 13.8352C28 12.0183 27.6379 10.2192 26.9343 8.54068C26.2307 6.86212 25.1995 5.33694 23.8995 4.05223C22.5995 2.76751 21.0561 1.74842 19.3576 1.05314C17.659 0.357857 15.8385 0 14 0Z"></path>
</svg>
