<svg width="200" height="200" viewBox="0 0 27 27" xmlns="http://www.w3.org/2000/svg">
<path d="M7.83 0H19.17C23.49 0 27 3.51 27 7.83V19.17C27 21.2466 26.1751 23.2382 24.7066 24.7066C23.2382 26.1751 21.2466 27 19.17 27H7.83C3.51 27 0 23.49 0 19.17V7.83C0 5.75336 0.824944 3.76176 2.29335 2.29335C3.76176 0.824944 5.75336 0 7.83 0ZM7.56 2.7C6.27105 2.7 5.03489 3.21203 4.12346 4.12346C3.21203 5.03489 2.7 6.27105 2.7 7.56V19.44C2.7 22.1265 4.8735 24.3 7.56 24.3H19.44C20.729 24.3 21.9651 23.788 22.8765 22.8765C23.788 21.9651 24.3 20.729 24.3 19.44V7.56C24.3 4.8735 22.1265 2.7 19.44 2.7H7.56ZM20.5875 4.725C21.0351 4.725 21.4643 4.90279 21.7807 5.21926C22.0972 5.53573 22.275 5.96495 22.275 6.4125C22.275 6.86005 22.0972 7.28928 21.7807 7.60574C21.4643 7.92221 21.0351 8.1 20.5875 8.1C20.1399 8.1 19.7107 7.92221 19.3943 7.60574C19.0778 7.28928 18.9 6.86005 18.9 6.4125C18.9 5.96495 19.0778 5.53573 19.3943 5.21926C19.7107 4.90279 20.1399 4.725 20.5875 4.725ZM13.5 6.75C15.2902 6.75 17.0071 7.46116 18.273 8.72703C19.5388 9.9929 20.25 11.7098 20.25 13.5C20.25 15.2902 19.5388 17.0071 18.273 18.273C17.0071 19.5388 15.2902 20.25 13.5 20.25C11.7098 20.25 9.9929 19.5388 8.72703 18.273C7.46116 17.0071 6.75 15.2902 6.75 13.5C6.75 11.7098 7.46116 9.9929 8.72703 8.72703C9.9929 7.46116 11.7098 6.75 13.5 6.75ZM13.5 9.45C12.4259 9.45 11.3957 9.87669 10.6362 10.6362C9.87669 11.3957 9.45 12.4259 9.45 13.5C9.45 14.5741 9.87669 15.6043 10.6362 16.3638C11.3957 17.1233 12.4259 17.55 13.5 17.55C14.5741 17.55 15.6043 17.1233 16.3638 16.3638C17.1233 15.6043 17.55 14.5741 17.55 13.5C17.55 12.4259 17.1233 11.3957 16.3638 10.6362C15.6043 9.87669 14.5741 9.45 13.5 9.45Z"></path>
</svg>
