<svg width="23" height="23" viewBox="0 0 23 23" xmlns="http://www.w3.org/2000/svg">
<path d="M16.514 13.8C16.606 13.041 16.675 12.282 16.675 11.5C16.675 10.718 16.606 9.959 16.514 9.2H20.401C20.585 9.936 20.7 10.7065 20.7 11.5C20.7 12.2935 20.585 13.064 20.401 13.8M14.4785 20.194C15.1685 18.9175 15.6975 17.5375 16.0655 16.1H19.458C18.3438 18.0185 16.5762 19.4718 14.4785 20.194ZM14.191 13.8H8.809C8.694 13.041 8.625 12.282 8.625 11.5C8.625 10.718 8.694 9.9475 8.809 9.2H14.191C14.2945 9.9475 14.375 10.718 14.375 11.5C14.375 12.282 14.2945 13.041 14.191 13.8ZM11.5 20.654C10.5455 19.274 9.775 17.7445 9.3035 16.1H13.6965C13.225 17.7445 12.4545 19.274 11.5 20.654ZM6.9 6.9H3.542C4.64444 4.97609 6.41086 3.52043 8.51 2.806C7.82 4.0825 7.3025 5.4625 6.9 6.9ZM3.542 16.1H6.9C7.3025 17.5375 7.82 18.9175 8.51 20.194C6.41501 19.4721 4.65093 18.0184 3.542 16.1ZM2.599 13.8C2.415 13.064 2.3 12.2935 2.3 11.5C2.3 10.7065 2.415 9.936 2.599 9.2H6.486C6.394 9.959 6.325 10.718 6.325 11.5C6.325 12.282 6.394 13.041 6.486 13.8M11.5 2.3345C12.4545 3.7145 13.225 5.2555 13.6965 6.9H9.3035C9.775 5.2555 10.5455 3.7145 11.5 2.3345ZM19.458 6.9H16.0655C15.705 5.47585 15.1721 4.10102 14.4785 2.806C16.5945 3.5305 18.354 4.991 19.458 6.9ZM11.5 0C5.1405 0 0 5.175 0 11.5C0 14.55 1.2116 17.4751 3.36827 19.6317C4.43615 20.6996 5.7039 21.5467 7.09914 22.1246C8.49438 22.7025 9.9898 23 11.5 23C14.55 23 17.4751 21.7884 19.6317 19.6317C21.7884 17.4751 23 14.55 23 11.5C23 9.9898 22.7025 8.49438 22.1246 7.09914C21.5467 5.7039 20.6996 4.43615 19.6317 3.36827C18.5639 2.3004 17.2961 1.45331 15.9009 0.875385C14.5056 0.297456 13.0102 0 11.5 0Z"/>
</svg>
