<svg version="1.2" xmlns="http://www.w3.org/2000/svg" viewBox="0 0 256 256" width="256" height="256">
	<title>sk_logo_white</title>
	<style>
		.s0 { fill: #ffffff;stroke: #242227;paint-order:stroke fill markers;stroke-linejoin: round;stroke-width: 24 } 
	</style>
	<path fill-rule="evenodd" class="s0" d="m14.9 178.5c33.6-9.3 66.5-20 98.3-33.9-1.7 0-3.4-0.1-5.1-0.2-15.6-0.8-31.1-1.9-46.3-5.2-4.8-1-9.6-2.3-13.9-4.7-1.1-0.5-2-1.2-2.8-1.9-2.4-2-2.9-4.7-1-7.1 2-2.6 4.2-5 6.6-7.1 5.5-4.8 11.8-8.3 18.2-11.6 11.2-5.8 23-10.5 35-14.7 0.2-0.1 0.5-0.1 0.9-0.2 3.8 6.4 7.6 12.8 11.5 19.4-8.9 3.5-18 6.7-26.5 11.6 13 1.2 25.8 2.4 38.7 3.6-1-2.4-1.8-4.9-3-7.2q-11.5-22.8-23-45.7c-0.2-0.4-0.4-0.9-0.7-1.5 8.6-3.9 17.1-7.8 25.8-11.8 7.1 16.4 14.2 32.7 21.4 49.3 5.1-15.7 10-31.2 15-46.6 3.4 0.1 30.4 10.7 35.7 14.1-10.7 17-21.3 34-32 51.2 24.3-0.2 48.3-1 72.7-0.1-2.9 11.5-5.8 22.7-8.5 34-9.3-2.5-18.2-5.1-27.3-7.4-9.1-2.4-18.1-4.8-27.8-5.8 7 10.6 13.8 20.9 20.7 31.5-11.1 5.2-22.2 10.3-33.4 15.4-5-10.6-10.1-21.2-15.1-31.9 0.7-0.2 1.3-0.5 2-0.7 6-2.1 11.3-5.2 15.3-10.3 2.4-2.9 3.9-6.1 4.3-9.9 0.3-3.6-0.7-6.7-3-9.5-2.1-2.5-7-5.5-10.5-6.5 5.3 3.4 6.4 7.8 7 13.3 0.2 2.4-0.6 5.2-1.7 7.2-2.3 4.8-6.4 7.4-10.9 9.7-10.8 5.4-21.9 10-33.3 14.1-21 7.7-42.2 15.1-63.4 22.6-4.1 1.5-8.3 2.8-12.5 4.2-0.4 0.2-1.1 0.1-1.5-0.1-8.5-6.5-16.9-13-25.3-19.5-0.2 0-0.4 0-0.6-0.1zm174-112.8c12.1-3 24.2-6 36.5-9 0 1.5 0 2.7 0 3.9q-0.3 12.6-0.6 25.1c0 0.7-0.1 1.3-1.1 1.5-9.3 2-18.5 4.1-27.7 6.1-0.2 0.1-0.4 0.1-0.7 0.1 3.8-6.3 7.5-12.5 11.3-18.8-6-2.9-11.8-5.7-17.7-8.6-0.1 0 0-0.1 0-0.3zm-33.2 9.7c-2.4 7.6-4.7 14.8-7 22.1-0.1 0-0.2 0.1-0.3 0.1-2.3-5.9-4.6-11.8-7-17.8 4.8-1.4 9.4-2.9 14.3-4.4z"/>
</svg>